<svg width="32" height="32" viewBox="0 0 32 32" fill="none" xmlns="http://www.w3.org/2000/svg">
<path fill-rule="evenodd" clip-rule="evenodd" d="M27.7891 5.83326C27.4847 5.09818 26.9006 4.51415 26.1656 4.20967L17.1479 0.474455C16.4129 0.169974 15.5869 0.169973 14.8518 0.474455L5.83424 4.20967C5.09915 4.51415 4.51513 5.09817 4.21065 5.83326L0.475432 14.8509C0.17095 15.586 0.17095 16.4119 0.475431 17.147L4.21065 26.1646C4.51513 26.8997 5.09915 27.4837 5.83423 27.7882L14.8518 31.5234C15.5869 31.8279 16.4129 31.8279 17.1479 31.5234L26.1656 27.7882C26.9006 27.4837 27.4847 26.8997 27.7891 26.1646L31.5244 17.147C31.8288 16.4119 31.8288 15.586 31.5244 14.8509L27.7891 5.83326ZM8.20566 18.7669C8.20566 19.8387 8.77746 20.829 9.70566 21.3649L14.4999 24.1329C15.4281 24.6688 16.5717 24.6688 17.4999 24.1329L22.2941 21.3649C23.2223 20.829 23.7941 19.8387 23.7941 18.7669V13.231C23.7941 12.1592 23.2223 11.1688 22.2941 10.6329L17.4999 7.86494C16.5717 7.32905 15.4281 7.32905 14.4999 7.86494L9.70566 10.6329C8.77746 11.1688 8.20566 12.1592 8.20566 13.231L8.20566 18.7669Z" fill="url(#paint0_linear)"/>
<defs>
<linearGradient id="paint0_linear" x1="15.9999" y1="0.246094" x2="15.9999" y2="31.7517" gradientUnits="userSpaceOnUse">
<stop stop-color="#5CC878"/>
<stop offset="1" stop-color="#6C5BF6"/>
</linearGradient>
</defs>
</svg>
