<svg width="191" height="56" viewBox="0 0 191 56" fill="none" xmlns="http://www.w3.org/2000/svg">
<path fill-rule="evenodd" clip-rule="evenodd" d="M43.7891 21.8333C43.4847 21.0982 42.9006 20.5142 42.1656 20.2097L33.1479 16.4745C32.4129 16.17 31.5869 16.17 30.8518 16.4745L21.8342 20.2097C21.0992 20.5142 20.5151 21.0982 20.2106 21.8333L16.4754 30.8509C16.171 31.586 16.1709 32.4119 16.4754 33.147L20.2106 42.1646C20.5151 42.8997 21.0992 43.4837 21.8342 43.7882L30.8518 47.5234C31.5869 47.8279 32.4129 47.8279 33.1479 47.5234L42.1656 43.7882C42.9006 43.4837 43.4847 42.8997 43.7891 42.1646L47.5244 33.147C47.8288 32.4119 47.8288 31.586 47.5244 30.8509L43.7891 21.8333ZM24.2057 34.7669C24.2057 35.8387 24.7775 36.829 25.7057 37.3649L30.4999 40.1329C31.4281 40.6688 32.5717 40.6688 33.4999 40.1329L38.2941 37.3649C39.2223 36.829 39.7941 35.8387 39.7941 34.7669V29.231C39.7941 28.1592 39.2223 27.1688 38.2941 26.6329L33.4999 23.8649C32.5717 23.329 31.4281 23.329 30.4999 23.8649L25.7057 26.6329C24.7775 27.1688 24.2057 28.1592 24.2057 29.231L24.2057 34.7669Z" fill="url(#paint0_linear)"/>
<path d="M77.598 26.652H73.9845V22.6181L70.3238 23.9923V26.652H68.3332V29.0236H70.3238V34.1878C70.3238 35.429 70.667 36.3672 71.3534 37.0026C72.055 37.638 73.1456 37.9557 74.6252 37.9557C75.2048 37.9557 75.8988 37.8818 76.7072 37.734V34.9192C76.3259 34.9931 75.9751 35.03 75.6548 35.03C74.5413 35.03 73.9845 34.4685 73.9845 33.3455V29.0236H77.598V34.1878C77.598 35.429 77.9412 36.3672 78.6276 37.0026C79.3293 37.638 80.4199 37.9557 81.8995 37.9557C82.4791 37.9557 83.1731 37.8818 83.9815 37.734V34.9192C83.6002 34.9931 83.2494 35.03 82.929 35.03C81.8156 35.03 81.2588 34.4685 81.2588 33.3455V29.0236H83.9815V26.652H81.2588V20.0106L77.598 21.3848V26.652Z" fill="#111111"/>
<path fill-rule="evenodd" clip-rule="evenodd" d="M62.9259 38C61.7819 38 60.7599 37.7784 59.86 37.3351C58.9753 36.877 58.2736 36.2121 57.755 35.3403C57.2517 34.4685 57 33.412 57 32.1709C57 30.9297 57.2517 29.8806 57.755 29.0236C58.2736 28.1518 58.9753 27.4942 59.86 27.051C60.7599 26.6077 61.7819 26.386 62.9259 26.386C64.0699 26.386 65.0918 26.6077 65.9918 27.051C66.8917 27.4942 67.5934 28.1518 68.0967 29.0236C68.6153 29.8806 68.8746 30.9297 68.8746 32.1709C68.8746 33.412 68.6153 34.4685 68.0967 35.3403C67.5934 36.2121 66.8917 36.877 65.9918 37.3351C65.0918 37.7784 64.0699 38 62.9259 38ZM62.9259 35.5398C63.658 35.5398 64.2224 35.259 64.619 34.6976C65.0156 34.1213 65.2139 33.2791 65.2139 32.1709C65.2139 31.0479 65.0156 30.213 64.619 29.6663C64.2224 29.1196 63.658 28.8462 62.9259 28.8462C62.1937 28.8462 61.6294 29.1196 61.2328 29.6663C60.8514 30.213 60.6608 31.0479 60.6608 32.1709C60.6608 33.2791 60.8591 34.1213 61.2557 34.6976C61.6522 35.259 62.209 35.5398 62.9259 35.5398Z" fill="#111111"/>
<path fill-rule="evenodd" clip-rule="evenodd" d="M89.7866 38C88.6426 38 87.6206 37.7784 86.7207 37.3351C85.836 36.877 85.1343 36.2121 84.6157 35.3403C84.1124 34.4685 83.8607 33.412 83.8607 32.1709C83.8607 30.9297 84.1124 29.8806 84.6157 29.0236C85.1343 28.1518 85.836 27.4942 86.7207 27.051C87.6206 26.6077 88.6426 26.386 89.7866 26.386C90.9306 26.386 91.9525 26.6077 92.8525 27.051C93.7524 27.4942 94.4541 28.1518 94.9574 29.0236C95.476 29.8806 95.7353 30.9297 95.7353 32.1709C95.7353 33.412 95.476 34.4685 94.9574 35.3403C94.4541 36.2121 93.7524 36.877 92.8525 37.3351C91.9525 37.7784 90.9306 38 89.7866 38ZM89.7866 35.5398C90.5187 35.5398 91.0831 35.259 91.4797 34.6976C91.8763 34.1213 92.0746 33.2791 92.0746 32.1709C92.0746 31.0479 91.8763 30.213 91.4797 29.6663C91.0831 29.1196 90.5187 28.8462 89.7866 28.8462C89.0544 28.8462 88.49 29.1196 88.0935 29.6663C87.7121 30.213 87.5215 31.0479 87.5215 32.1709C87.5215 33.2791 87.7198 34.1213 88.1163 34.6976C88.5129 35.259 89.0697 35.5398 89.7866 35.5398Z" fill="#111111"/>
<path d="M100.315 28.6468V26.652H96.7912V37.734H100.475V31.3951C100.475 30.6563 100.62 30.0874 100.91 29.6885C101.215 29.2895 101.642 29.0901 102.191 29.0901C103.198 29.0901 103.701 29.7993 103.701 31.2178V37.734H107.362V31.3729C107.362 30.6341 107.507 30.0727 107.796 29.6885C108.101 29.2895 108.529 29.0901 109.078 29.0901C109.612 29.0901 110 29.2674 110.245 29.622C110.489 29.9618 110.611 30.5012 110.611 31.24V37.734H114.271V30.4864C114.271 29.1861 113.959 28.1739 113.333 27.4499C112.723 26.7259 111.861 26.3639 110.748 26.3639C109.116 26.3639 107.896 27.1322 107.087 28.6689C106.797 27.8858 106.385 27.3095 105.852 26.9401C105.318 26.556 104.647 26.3639 103.838 26.3639C102.999 26.3639 102.29 26.556 101.71 26.9401C101.146 27.3095 100.681 27.8784 100.315 28.6468Z" fill="#111111"/>
<path fill-rule="evenodd" clip-rule="evenodd" d="M118.999 38C117.825 38 116.872 37.7045 116.14 37.1134C115.423 36.5076 115.064 35.7097 115.064 34.7197C115.064 33.6558 115.453 32.8579 116.231 32.326C116.994 31.8088 118.191 31.4468 119.823 31.24L122.592 30.8632V30.4864C122.592 29.8658 122.454 29.4077 122.18 29.1122C121.905 28.8167 121.478 28.6689 120.899 28.6689C120.334 28.6689 119.892 28.8093 119.571 29.0901C119.266 29.3708 119.099 29.7771 119.068 30.3091H115.43C115.522 29.0827 116.048 28.1222 117.009 27.4277C117.985 26.7333 119.289 26.386 120.921 26.386C122.767 26.386 124.117 26.7554 124.971 27.4942C125.825 28.2183 126.252 29.3782 126.252 30.974V34.6532C126.252 35.9978 126.359 37.0248 126.573 37.734H123.003C122.912 37.2907 122.851 36.7071 122.82 35.9831C122.531 36.6037 122.043 37.0987 121.356 37.4681C120.67 37.8227 119.884 38 118.999 38ZM120.372 35.7393C121.074 35.7393 121.638 35.5324 122.065 35.1187C122.492 34.7049 122.706 34.1656 122.706 33.5007V32.6141L120.738 32.9244C120.067 33.0426 119.571 33.2273 119.251 33.4785C118.931 33.715 118.771 34.04 118.771 34.4538C118.771 34.8379 118.916 35.1482 119.205 35.3846C119.495 35.6211 119.884 35.7393 120.372 35.7393Z" fill="#111111"/>
<path d="M128.166 26.652H126.176V29.0236H128.166V34.1878C128.166 35.429 128.509 36.3672 129.196 37.0026C129.897 37.638 130.988 37.9557 132.467 37.9557C133.047 37.9557 133.741 37.8818 134.55 37.734V34.9192C134.168 34.9931 133.817 35.03 133.497 35.03C132.384 35.03 131.827 34.4685 131.827 33.3455V29.0236H134.55V26.652H131.827V22.6181L128.166 23.9923V26.652Z" fill="#111111"/>
<path d="M135.522 26.652H139.205V37.734H135.522V26.652Z" fill="#111111"/>
<path d="M144.923 34.5646L146.182 33.2569L148.905 37.734H153L148.721 31.0627L152.886 26.652H148.63L144.923 30.9962V19L141.24 20.3325V37.734H144.923V34.5646Z" fill="#111111"/>
<path d="M137.327 25.6742C138.349 25.6742 139.178 24.8716 139.178 23.8815C139.178 22.8914 138.349 22.0888 137.327 22.0888C136.305 22.0888 135.476 22.8914 135.476 23.8815C135.476 24.8716 136.305 25.6742 137.327 25.6742Z" fill="#111111"/>
<defs>
<linearGradient id="paint0_linear" x1="31.9999" y1="16.2461" x2="31.9999" y2="47.7517" gradientUnits="userSpaceOnUse">
<stop stop-color="#5CC878"/>
<stop offset="1" stop-color="#6C5BF6"/>
</linearGradient>
</defs>
</svg>
